<svg data-v-423bf9ae="" xmlns="http://www.w3.org/2000/svg" viewBox="0 0 401.776418468988 60" class="font"><!----><!----><!----><g data-v-423bf9ae="" id="ab3e2536-659d-4d5d-a3a9-2ad2cce0e2ac" fill="black" transform="matrix(5.663430286704893,0,0,5.663430286704893,-3.1715250975246647,-21.39643988550869)"><path d="M5.04 10.50L5.07 10.30Q5.04 10.23 5.06 10.07Q5.08 9.90 5.11 9.62L5.11 9.62Q5.11 9.18 5.12 9.09L5.12 9.09L5.11 8.81Q5.11 8.58 5.12 8.43L5.12 8.43L5.12 8.02Q5.15 7.90 5.13 7.60Q5.11 7.31 5.15 6.85Q5.19 6.40 5.22 6.30L5.22 6.30L5.22 6.02Q5.22 5.98 5.24 5.73L5.24 5.73L5.24 5.63Q5.25 5.42 5.22 5.38L5.22 5.38L5.35 4.86L5.40 4.56Q5.43 4.51 5.61 4.33L5.61 4.33Q5.66 4.28 5.94 4.28Q6.22 4.28 6.36 4.30Q6.50 4.31 6.54 4.38Q6.58 4.44 6.62 4.63L6.62 4.63Q6.71 4.82 6.66 5.10L6.66 5.10Q6.68 5.18 6.68 5.22L6.68 5.22L6.68 5.36Q6.72 5.64 6.66 5.94L6.66 5.94Q6.66 6.05 6.68 6.16L6.68 6.16L6.68 6.29Q6.68 6.57 6.64 6.78L6.64 6.78L6.64 7.13Q6.65 7.31 6.59 7.48L6.59 7.48Q6.59 7.53 6.58 7.81L6.58 7.81Q6.55 7.91 6.52 8.05L6.52 8.05Q6.57 8.16 6.52 8.34L6.52 8.34Q6.48 8.39 6.55 8.68L6.55 8.68Q6.50 8.86 6.57 9.34L6.57 9.34L6.57 9.62Q6.61 10.07 6.55 10.50L6.55 10.50L6.55 10.58Q6.55 10.86 6.52 10.99L6.52 10.99Q6.55 11.23 6.52 11.59L6.52 11.59L6.52 11.68L6.50 12.01Q6.34 13.01 5.60 13.15L5.60 13.15Q4.69 13.31 4.16 12.66L4.16 12.66L4.07 12.45Q3.92 12.42 3.67 11.80L3.67 11.80Q3.28 10.86 3.23 10.77L3.23 10.77Q3.04 10.22 3.04 10.18L3.04 10.18L3.01 9.91Q3.00 9.88 2.95 9.80Q2.91 9.72 2.88 9.63L2.88 9.63Q2.88 9.53 2.79 9.21L2.79 9.21Q2.79 9.18 2.72 8.86L2.72 8.86L2.55 7.62Q2.55 7.57 2.53 7.48L2.53 7.48L2.48 7.78Q2.38 8.72 2.34 8.92L2.34 8.92L2.27 10.33L2.27 10.89L2.23 11.58Q2.23 12.10 2.27 12.54L2.27 12.54Q2.25 12.95 2.11 13.08Q1.97 13.22 1.69 13.23L1.69 13.23Q1.50 13.17 1.16 13.02L1.16 13.02Q1.06 12.96 1.03 12.79Q0.99 12.61 0.87 12.49Q0.74 12.36 0.73 12.21L0.73 12.21L0.56 11.14Q0.56 10.92 0.58 10.67Q0.60 10.43 0.58 10.16Q0.56 9.90 0.65 9.55Q0.74 9.20 0.73 8.95Q0.71 8.71 0.76 8.32Q0.80 7.94 0.80 7.76Q0.80 7.59 0.84 7.49L0.84 7.49Q0.84 7.27 0.87 7.14L0.87 7.14Q0.85 7.10 0.95 6.72L0.95 6.72Q0.95 6.62 0.99 6.43Q1.04 6.23 1.08 5.89Q1.12 5.56 1.23 5.35Q1.34 5.14 1.58 4.87L1.58 4.87Q1.71 4.80 1.81 4.51L1.81 4.51Q1.90 4.37 2.17 4.24L2.17 4.24Q2.27 4.17 2.43 4.17Q2.59 4.17 2.73 4.27L2.73 4.27Q3.28 4.48 3.40 5.01L3.40 5.01L3.46 5.36Q3.46 5.45 3.58 5.74L3.58 5.74Q3.58 5.88 3.64 6.15L3.64 6.15Q3.64 6.34 3.74 6.55L3.74 6.55Q3.88 7.27 3.95 7.55L3.95 7.55Q4.02 7.64 4.06 7.81L4.06 7.81Q4.09 7.94 4.17 8.19L4.17 8.19Q4.20 8.43 4.30 8.74L4.30 8.74Q4.87 10.61 5.01 10.85L5.01 10.85Q5.04 10.79 5.04 10.50L5.04 10.50ZM10.84 9.42L10.84 9.42Q10.82 9.11 10.70 8.95Q10.57 8.79 10.23 8.76L10.23 8.76Q10.14 8.83 9.98 9.23Q9.81 9.63 9.77 10.08L9.77 10.08Q9.63 10.75 9.63 11.42L9.63 11.42Q9.65 12.11 9.86 12.43L9.86 12.43Q9.88 12.49 9.91 12.47L9.91 12.47Q9.98 12.47 10.14 12.19L10.14 12.19Q10.88 10.85 10.84 9.42ZM11.27 12.10L11.27 12.10L11.06 12.64Q11.06 12.67 10.65 13.24L10.65 13.24Q10.53 13.51 10.19 13.54Q9.84 13.57 9.52 13.47L9.52 13.47Q9.09 13.31 8.86 13.10Q8.64 12.89 8.42 12.40Q8.20 11.90 8.19 11.58L8.19 11.58Q8.12 11.12 8.12 10.99L8.12 10.99L8.12 10.65Q8.12 10.15 8.16 10.07L8.16 10.07Q8.18 10.01 8.23 9.77L8.23 9.77Q8.30 9.18 8.57 8.65L8.57 8.65Q9.09 7.63 9.63 7.60L9.63 7.60L9.70 7.60Q9.73 7.62 9.79 7.62L9.79 7.62L9.97 7.62Q10.46 7.66 10.57 7.70L10.57 7.70Q10.78 7.76 10.93 7.76L10.93 7.76L11.30 7.83Q11.47 7.81 11.74 7.90Q12.01 7.98 12.03 8.02Q12.05 8.06 12.11 8.33Q12.17 8.60 12.19 8.71Q12.21 8.83 12.22 8.96L12.22 8.96Q12.33 9.98 12.59 10.86L12.59 10.86Q12.60 10.91 12.61 10.99Q12.63 11.07 12.71 11.32Q12.80 11.56 12.84 11.73Q12.88 11.90 12.99 12.18L12.99 12.18Q13.08 12.39 13.24 12.67L13.24 12.67Q13.55 13.10 12.92 13.34L12.92 13.34Q12.84 13.37 12.63 13.37L12.63 13.37Q12.59 13.37 12.36 13.23L12.36 13.23Q12.22 13.23 12.10 13.08L12.10 13.08L11.98 13.05Q11.89 12.95 11.82 12.95L11.82 12.95Q11.79 12.92 11.31 11.82L11.31 11.82Q11.27 11.97 11.27 12.10ZM16.87 9.42L16.87 9.42Q16.86 9.11 16.73 8.95Q16.60 8.79 16.27 8.76L16.27 8.76Q16.17 8.83 16.01 9.23Q15.85 9.63 15.81 10.08L15.81 10.08Q15.67 10.75 15.67 11.42L15.67 11.42Q15.68 12.11 15.89 12.43L15.89 12.43Q15.92 12.49 15.95 12.47L15.95 12.47Q16.02 12.47 16.17 12.19L16.17 12.19Q16.91 10.85 16.87 9.42ZM17.30 12.10L17.30 12.10L17.09 12.64Q17.09 12.67 16.69 13.24L16.69 13.24Q16.56 13.51 16.22 13.54Q15.88 13.57 15.55 13.47L15.55 13.47Q15.12 13.31 14.90 13.10Q14.67 12.89 14.46 12.40Q14.24 11.90 14.22 11.58L14.22 11.58Q14.15 11.12 14.15 10.99L14.15 10.99L14.15 10.65Q14.15 10.15 14.20 10.07L14.20 10.07Q14.21 10.01 14.27 9.77L14.27 9.77Q14.34 9.18 14.60 8.65L14.60 8.65Q15.12 7.63 15.67 7.60L15.67 7.60L15.74 7.60Q15.76 7.62 15.82 7.62L15.82 7.62L16.00 7.62Q16.49 7.66 16.60 7.70L16.60 7.70Q16.81 7.76 16.97 7.76L16.97 7.76L17.33 7.83Q17.50 7.81 17.77 7.90Q18.05 7.98 18.07 8.02Q18.09 8.06 18.14 8.33Q18.20 8.60 18.22 8.71Q18.24 8.83 18.26 8.96L18.26 8.96Q18.37 9.98 18.62 10.86L18.62 10.86Q18.63 10.91 18.65 10.99Q18.66 11.07 18.75 11.32Q18.83 11.56 18.87 11.73Q18.91 11.90 19.03 12.18L19.03 12.18Q19.11 12.39 19.28 12.67L19.28 12.67Q19.59 13.10 18.96 13.34L18.96 13.34Q18.87 13.37 18.66 13.37L18.66 13.37Q18.62 13.37 18.40 13.23L18.40 13.23Q18.26 13.23 18.13 13.08L18.13 13.08L18.02 13.05Q17.92 12.95 17.85 12.95L17.85 12.95Q17.82 12.92 17.35 11.82L17.35 11.82Q17.30 11.97 17.30 12.10ZM21.85 9.41L21.85 9.46L21.84 10.05L21.84 10.50L21.87 11.03Q21.87 11.62 22.01 12.32L22.01 12.32L22.08 12.45Q22.08 12.29 22.13 12.18Q22.18 12.07 22.18 11.91L22.18 11.91L22.37 11.19Q22.37 11.14 22.44 11.00L22.44 11.00Q22.50 10.86 22.62 10.48Q22.74 10.09 22.76 9.81Q22.79 9.52 22.82 9.41L22.82 9.41Q22.85 9.30 22.81 9.10L22.81 9.10L22.88 8.53Q22.88 8.33 22.93 8.25L22.93 8.25Q23.52 8.16 23.70 8.15L23.70 8.15Q23.70 8.23 23.80 8.37L23.80 8.37Q23.80 8.43 23.90 8.62L23.90 8.62L23.95 8.88Q24.04 9.07 24.16 10.60L24.16 10.60Q24.18 11.09 24.43 11.96L24.43 11.96Q24.50 11.84 24.49 11.69L24.49 11.69Q24.57 11.61 24.57 11.24L24.57 11.24L24.71 10.86L24.98 9.42L25.03 8.81L25.14 8.37Q25.17 8.19 25.26 8.11Q25.35 8.04 25.56 8.05L25.56 8.05L25.91 8.05Q26.01 8.12 26.18 8.12L26.18 8.12L26.35 8.16Q26.33 8.33 26.32 8.54L26.32 8.54Q26.31 8.71 26.21 9.31L26.21 9.31Q26.04 11.31 25.96 11.72L25.96 11.72Q25.96 11.82 25.91 11.87L25.91 11.87Q25.90 12.07 25.72 12.82L25.72 12.82Q25.72 12.94 25.42 13.23L25.42 13.23Q25.33 13.40 25.13 13.44L25.13 13.44Q25.06 13.51 24.86 13.52L24.86 13.52Q24.67 13.55 24.46 13.47Q24.25 13.40 24.22 13.36L24.22 13.36Q24.08 13.23 23.87 13.17L23.87 13.17L23.66 13.09Q23.49 12.91 23.46 12.88L23.46 12.88Q23.41 12.80 23.37 12.47L23.37 12.47Q23.34 12.46 23.30 12.10L23.30 12.10Q23.13 12.71 23.13 12.78L23.13 12.78Q23.06 13.02 23.04 13.05Q23.02 13.09 23.01 13.15Q23.00 13.22 22.97 13.27L22.97 13.27Q22.97 13.36 22.88 13.45Q22.79 13.55 22.54 13.61L22.54 13.61Q22.29 13.68 21.88 13.62L21.88 13.62L21.71 13.64Q21.62 13.64 21.50 13.61L21.50 13.61Q21.34 13.50 21.27 13.33L21.27 13.33Q21.10 13.09 20.97 12.81L20.97 12.81Q20.89 12.73 20.75 12.25L20.75 12.25Q20.62 11.96 20.62 11.91L20.62 11.91L20.62 11.79Q20.57 11.73 20.50 11.45Q20.44 11.17 20.47 11.03L20.47 11.03Q20.43 10.98 20.43 10.74L20.43 10.74Q20.40 10.60 20.40 10.29L20.40 10.29Q20.36 9.77 20.30 9.62L20.30 9.62Q20.31 9.44 20.19 9.11L20.19 9.11Q20.08 8.48 20.12 8.39L20.12 8.39Q20.08 8.27 20.19 8.04L20.19 8.04Q20.19 7.97 20.54 7.64L20.54 7.64Q20.72 7.59 20.83 7.65Q20.94 7.71 21.08 7.73L21.08 7.73L21.57 7.87Q21.98 7.98 21.91 8.81L21.91 8.81L21.85 9.35Q21.85 9.37 21.85 9.41L21.85 9.41ZM28.31 4.66L28.35 4.66Q29.29 4.66 29.67 5.04L29.67 5.04Q29.67 5.28 29.34 6.01L29.34 6.01Q29.29 6.24 29.16 6.38L29.16 6.38L28.98 6.57Q28.91 6.61 28.84 6.61L28.84 6.61Q28.34 6.73 28.06 6.41L28.06 6.41Q28 6.33 27.92 6.29Q27.85 6.24 27.80 6.03L27.80 6.03Q27.68 5.85 27.68 5.75L27.68 5.75Q27.65 4.89 28.31 4.66L28.31 4.66ZM28.15 7.97L28.24 7.97Q28.38 7.90 28.90 8.11L28.90 8.11Q28.95 8.16 29.06 8.22L29.06 8.22L29.29 8.40Q29.34 8.46 29.34 8.58L29.34 8.58L29.34 9.81Q29.34 10.09 29.32 10.32L29.32 10.32L29.32 10.40Q29.27 10.98 29.39 12.99L29.39 12.99Q29.43 13.38 29.20 13.47L29.20 13.47Q28.97 13.47 28.90 13.40L28.90 13.40Q28.84 13.37 28.80 13.37L28.80 13.37L28.70 13.37L28.62 13.40Q28.57 13.40 28.46 13.33Q28.35 13.27 28.31 13.20Q28.28 13.13 28.20 13.12L28.20 13.12Q28.04 13.06 28.03 12.91L28.03 12.91Q27.83 12.53 27.82 12.46Q27.82 12.39 27.78 12.31L27.78 12.31L27.71 11.09Q27.71 10.88 27.73 10.77L27.73 10.77L27.73 10.43Q27.75 10.28 27.76 9.86Q27.78 9.45 27.80 9.20L27.80 9.20Q27.78 8.83 27.78 8.71Q27.78 8.58 27.79 8.53L27.79 8.53Q27.64 8.37 27.80 8.11L27.80 8.11Q27.99 7.97 28.15 7.97L28.15 7.97ZM30.63 9.73L30.63 9.73Q30.90 9.62 31.21 9.62Q31.53 9.62 31.71 9.59L31.71 9.59L31.72 9.59Q32.17 9.51 32.73 9.51L32.73 9.51L34.41 9.59L34.65 9.62Q35.01 9.62 35.27 9.81Q35.53 10.01 35.52 10.11Q35.52 10.22 35.50 10.35Q35.49 10.47 35.48 10.53L35.48 10.53Q35.43 10.65 35.17 10.71L35.17 10.71L34.94 10.75Q34.69 10.75 34.52 10.81L34.52 10.81Q34.31 10.81 34.16 10.87Q34.01 10.93 33.61 10.93L33.61 10.93L33.39 10.98Q32.94 11.12 32.55 11.10L32.55 11.10Q32.38 11.17 32.20 11.16Q32.02 11.16 31.98 11.20L31.98 11.20Q31.84 11.28 31.32 11.28L31.32 11.28Q31.19 11.28 30.83 11.05L30.83 11.05L30.63 10.78Q30.60 10.75 30.62 10.56L30.62 10.56Q30.56 10.46 30.56 10.12L30.56 10.12Q30.63 10.02 30.63 9.73ZM38.09 10.26L38.09 10.26L38.14 11.52Q38.36 12.32 38.79 12.64L38.79 12.64Q38.86 12.71 39.12 12.80L39.12 12.80L39.47 12.88Q39.54 12.88 39.62 12.82L39.62 12.82Q39.72 12.80 39.76 12.75L39.76 12.75Q39.86 12.63 39.96 12.53Q40.05 12.43 40.04 12.43L40.04 12.43Q40.10 12.38 40.08 12.25L40.08 12.25Q40.12 12.21 40.19 12.07L40.19 12.07Q40.35 11.28 40.50 11.06L40.50 11.06Q40.56 10.44 40.56 10.28L40.56 10.28Q40.56 9.69 40.25 8.83L40.25 8.83Q40.08 8.64 40.08 7.59L40.08 7.59Q40.00 7.38 39.98 7.20Q39.97 7.03 39.89 6.82Q39.82 6.62 39.77 6.55Q39.73 6.48 39.73 6.42Q39.72 6.36 39.66 6.26L39.66 6.26Q39.44 5.92 38.98 6.62L38.98 6.62L38.74 7.04Q38.74 7.07 38.60 7.56L38.60 7.56Q38.37 8.34 38.38 8.43Q38.39 8.53 38.22 9.02L38.22 9.02Q38.21 9.06 38.21 9.21Q38.22 9.37 38.16 9.64Q38.09 9.91 38.09 10.26ZM36.50 9.24L36.50 9.24L36.60 8.20Q36.60 8.12 36.66 7.95Q36.72 7.78 36.74 7.74L36.74 7.74Q36.74 7.71 36.76 7.64L36.76 7.64Q36.76 7.27 36.97 6.99L36.97 6.99Q37.30 6.24 37.46 5.88Q37.63 5.52 37.83 5.28L37.83 5.28Q37.84 5.21 38.12 5.05L38.12 5.05Q38.70 4.75 39.20 4.75Q39.70 4.75 40.17 4.90L40.17 4.90Q40.32 4.93 40.58 5.11Q40.84 5.29 40.88 5.31L40.88 5.31Q41.12 5.45 41.38 5.90Q41.64 6.36 41.66 6.57Q41.68 6.78 41.83 7.23Q41.97 7.69 41.97 7.90Q41.97 8.12 42.05 8.55Q42.13 8.99 42.11 9.25L42.11 9.25Q42.03 11.23 41.61 12.11L41.61 12.11Q41.52 12.73 41.29 12.89L41.29 12.89L41.26 13.09Q41.24 13.26 41.10 13.47Q40.95 13.68 40.73 13.79L40.73 13.79Q40.68 13.83 40.17 13.92L40.17 13.92Q39.42 14.06 39.19 14.06L39.19 14.06Q38.88 14.15 38.41 14.02Q37.94 13.89 37.87 13.88Q37.80 13.87 37.57 13.73Q37.34 13.58 37.27 13.50L37.27 13.50Q37.04 13.33 37.00 13.23L37.00 13.23L36.81 12.84Q36.62 12.66 36.55 12.31Q36.48 11.97 36.41 11.87L36.41 11.87Q36.34 11.72 36.29 11.55L36.29 11.55Q36.30 11.45 36.30 11.20L36.30 11.20L36.30 11.06Q36.25 10.85 36.33 10.65L36.33 10.65Q36.34 10.56 36.35 10.41Q36.36 10.26 36.39 9.98L36.39 9.98L36.39 9.80Q36.51 9.38 36.50 9.24ZM45.85 9.31L45.85 9.31Q45.75 8.75 45.30 8.79L45.30 8.79Q45.05 8.81 44.87 9.13L44.87 9.13Q44.62 9.62 44.65 10.39Q44.69 11.17 44.77 11.51Q44.84 11.86 45.04 12.11L45.04 12.11Q45.15 12.31 45.37 12.29L45.37 12.29Q45.77 12.29 45.95 11.63L45.95 11.63L46.06 11.30Q46.13 11.23 46.09 11.16L46.09 11.16Q46.23 10.81 46.24 10.33L46.24 10.33Q46.10 10.23 46.07 10.15L46.07 10.15Q45.99 9.91 45.99 9.83L45.99 9.83Q45.89 9.76 45.88 9.56Q45.86 9.37 45.85 9.31ZM43.29 10.63L43.29 10.63L43.34 9.91Q43.44 8.95 43.93 8.26L43.93 8.26Q44.41 7.69 45.28 7.67L45.28 7.67L45.36 7.67Q46.17 7.67 46.54 8.02L46.54 8.02Q46.93 8.33 47.12 8.69Q47.31 9.06 47.36 9.23Q47.42 9.39 47.43 9.72L47.43 9.72Q47.46 10.32 47.19 10.40L47.19 10.40Q47.39 11.73 46.96 12.52L46.96 12.52Q46.82 12.84 46.55 13.22L46.55 13.22Q46.35 13.47 45.85 13.50L45.85 13.50Q45.35 13.50 44.98 13.44Q44.60 13.38 44.16 13.08Q43.71 12.78 43.53 12.10L43.53 12.10Q43.33 11.44 43.29 10.63ZM51.51 9.88L51.51 9.88L51.48 9.67Q51.44 9.62 51.43 9.53Q51.42 9.44 51.38 9.24L51.38 9.24Q51.38 8.99 51.25 8.79L51.25 8.79Q51.21 8.68 50.92 8.72L50.92 8.72Q50.72 8.92 50.46 9.83L50.46 9.83Q50.46 9.84 50.41 9.94L50.41 9.94Q50.36 10.07 50.30 10.35Q50.25 10.64 50.23 10.68L50.23 10.68Q50.20 10.77 50.20 10.84L50.20 10.84Q50.18 10.89 50.18 11.02L50.18 11.02L50.12 11.28Q50.06 11.37 50.09 11.49L50.09 11.49L50.09 11.69Q50.11 11.73 50.08 11.93L50.08 11.93L50.08 12.12L50.11 12.60Q50.11 12.77 50.39 13.15L50.39 13.15Q50.50 13.17 50.53 13.13L50.53 13.13Q50.81 12.85 50.83 12.56L50.83 12.56L50.88 12.38Q50.95 12.31 50.99 11.96L50.99 11.96L51.06 11.72Q51.06 11.59 51.11 11.45Q51.17 11.31 51.18 11.24L51.18 11.24Q51.18 11.13 51.37 10.68L51.37 10.68Q51.35 10.64 51.35 10.60L51.35 10.60L51.35 10.50Q51.51 9.90 51.51 9.88ZM53.41 4.59L53.28 5.36Q53.28 5.85 53.23 5.96L53.23 5.96L53.13 6.87L53.13 7.35Q53.12 7.59 53.12 8.06Q53.12 8.54 53.14 8.86Q53.16 9.17 53.10 9.38L53.10 9.38Q53.13 9.41 53.13 9.48L53.13 9.48L53.14 9.59L53.13 9.91L53.13 10.50Q53.14 10.65 53.14 11.03L53.14 11.03Q53.17 11.35 53.17 11.55Q53.17 11.75 53.21 11.94L53.21 11.94L53.21 12.12L53.27 12.70L53.27 13.17Q53.30 13.27 53.30 13.36Q53.30 13.45 53.36 13.67Q53.42 13.89 53.41 14.07L53.41 14.07Q53.02 14.53 52.42 14.29L52.42 14.29Q52.29 14.28 52.16 14.15Q52.02 14.03 52.00 13.90L52.00 13.90L51.98 13.62Q51.91 13.61 51.90 13.38L51.90 13.38Q51.84 13.30 51.86 13.24L51.86 13.24Q51.90 13.17 51.79 13.01L51.79 13.01L51.63 13.27Q51.56 13.38 51.48 13.41L51.48 13.41L51.42 13.58Q51.23 13.79 51.13 13.93L51.13 13.93L50.96 14.10Q50.62 14.17 50.04 14.04L50.04 14.04Q49.90 14.04 49.81 14.01L49.81 14.01L49.71 14.01Q49.69 14.04 49.41 13.89L49.41 13.89Q49.17 13.79 49.15 13.71L49.15 13.71L49.24 13.72Q49.04 13.64 49.10 13.45L49.10 13.45Q48.93 13.38 48.89 13.15L48.89 13.15L48.76 12.67Q48.73 12.49 48.78 12.28L48.78 12.28Q48.75 12.22 48.85 11.90L48.85 11.90L48.80 11.77L48.78 11.52Q48.73 11.47 48.79 11.27L48.79 11.27L48.71 11.13Q48.71 10.57 48.75 10.44L48.75 10.44L48.76 10.26Q48.69 10.15 48.80 9.79L48.80 9.79L49 9.14Q49 9.11 49.04 8.89L49.04 8.89Q49.11 8.54 49.21 8.44L49.21 8.44L49.46 8.02Q49.53 7.95 49.62 7.81L49.62 7.81Q49.76 7.56 50.20 7.56L50.20 7.56Q50.67 7.49 51.69 7.67L51.69 7.67L51.69 7.18L51.65 6.59Q51.65 6.17 51.63 5.82Q51.60 5.47 51.63 5.26L51.63 5.26Q51.65 5.25 51.77 4.69Q51.90 4.13 52.19 3.85L52.19 3.85Q52.29 3.79 52.55 3.78Q52.81 3.77 52.86 3.81Q52.92 3.85 53.02 3.88L53.02 3.88Q53.41 3.99 53.41 4.59L53.41 4.59ZM57.58 8.96L57.58 8.96Q57.64 8.75 57.57 8.43L57.57 8.43Q57.47 8.34 57.30 8.34L57.30 8.34Q57.09 8.34 56.92 8.74L56.92 8.74Q56.70 9.07 56.59 9.48L56.59 9.48L56.57 9.48Q56.42 10.07 56.42 10.11L56.42 10.11Q56.64 10.16 56.78 10.16Q56.92 10.15 57.11 10.01L57.11 10.01Q57.43 9.70 57.58 8.96ZM57.54 10.98L57.54 10.98L57.02 11.02Q56.59 11.02 56.34 10.93L56.34 10.93L56.38 11.20Q56.42 12.36 57.02 12.73L57.02 12.73Q57.19 12.80 57.30 12.80Q57.41 12.80 57.60 12.68L57.60 12.68Q57.65 12.63 57.69 12.53L57.69 12.53Q57.71 12.40 57.83 12.42L57.83 12.42Q58.41 11.69 58.70 11.84L58.70 11.84Q59.00 12.04 59.00 12.15L59.00 12.15Q59.00 12.21 58.93 12.28L58.93 12.28L58.93 12.36Q58.93 12.50 58.75 12.87Q58.58 13.23 58.38 13.48L58.38 13.48Q58.28 13.69 58.13 13.78L58.13 13.78Q57.68 14.06 57.18 14L57.18 14Q57.06 13.99 57.02 13.94L57.02 13.94Q56.91 13.92 56.85 13.93L56.85 13.93L56.74 13.92Q56.62 13.92 56.53 13.86L56.53 13.86Q56.39 13.78 56.34 13.78L56.34 13.78Q55.97 13.64 55.90 13.57Q55.82 13.50 55.76 13.47Q55.71 13.44 55.50 13.17L55.50 13.17Q55.31 13.02 55.29 12.98L55.29 12.98Q55.20 12.85 55.14 12.80Q55.08 12.74 55.06 12.54L55.06 12.54Q55.01 12.47 55.01 12.36L55.01 12.36L54.95 12.25Q54.95 12.15 54.87 12.10L54.87 12.10Q54.78 12.01 54.78 11.89L54.78 11.89L54.78 11.77Q54.73 11.75 54.75 11.61L54.75 11.61L54.75 11.24L54.74 11.12L54.74 11.02Q54.73 10.96 54.77 10.78L54.77 10.78L54.75 10.65Q54.77 10.64 54.80 10.43L54.80 10.43Q54.85 10.14 54.92 10.07L54.92 10.07L54.92 9.94Q54.94 9.90 54.94 9.83Q54.94 9.76 54.97 9.67Q55.01 9.59 55.19 9.04L55.19 9.04L55.41 8.55Q55.51 8.34 55.72 8.09L55.72 8.09Q55.73 8.02 55.83 7.84L55.83 7.84L56.01 7.67Q56.10 7.55 56.27 7.49L56.27 7.49Q56.46 7.39 56.56 7.39L56.56 7.39L56.95 7.34Q57.02 7.35 57.05 7.35L57.05 7.35L57.23 7.35Q57.54 7.38 57.74 7.48L57.74 7.48Q58.16 7.60 58.35 7.80L58.35 7.80Q58.79 8.29 58.79 8.74Q58.79 9.18 58.65 9.51L58.65 9.51Q58.30 10.30 58.14 10.51L58.14 10.51Q57.89 10.98 57.54 10.98ZM63.36 12.92L63.36 12.92L63.28 12.68L63.13 11.75Q63.06 11.48 63.06 11.27L63.06 11.27L63.11 10.65Q63.11 10.50 63.13 10.49L63.13 10.49Q62.96 10.49 62.62 10.89L62.62 10.89Q62.59 10.93 62.54 11.03L62.54 11.03Q61.95 11.97 61.84 13.29L61.84 13.29Q61.73 13.52 61.54 13.52L61.54 13.52Q61.17 13.44 61.12 13.44L61.12 13.44L61.03 13.45L60.84 13.45Q60.52 13.43 60.42 13.20L60.42 13.20Q60.37 13.13 60.37 12.84L60.37 12.84L60.37 12.64L60.33 11.87L60.33 10.72Q60.33 10.53 60.30 10.23L60.30 10.23Q60.27 9.91 60.28 9.22Q60.30 8.53 60.27 8.48Q60.24 8.43 60.24 8.34Q60.24 8.26 60.28 8.18Q60.33 8.09 60.66 7.99L60.66 7.99Q60.84 7.88 60.97 7.88L60.97 7.88Q61.17 7.92 61.47 8.05L61.47 8.05Q61.68 8.09 61.68 8.46L61.68 8.46Q61.71 9.06 61.69 9.32Q61.67 9.59 61.70 10.40L61.70 10.40Q62.73 8.41 63.55 8.01L63.55 8.01Q63.62 7.94 63.76 7.94Q63.90 7.94 64.08 8.08Q64.26 8.22 64.33 8.26Q64.40 8.30 64.49 8.40Q64.58 8.50 64.64 8.53L64.64 8.53Q64.81 8.81 64.71 9.84L64.71 9.84Q64.69 10.00 64.68 10.11Q64.67 10.23 64.67 10.63Q64.67 11.02 64.68 11.17L64.68 11.17Q64.72 11.66 64.72 11.75L64.72 11.75L64.79 12.28Q64.93 12.60 64.94 12.77Q64.95 12.95 65.18 13.33L65.18 13.33Q65.28 13.54 65.10 13.66L65.10 13.66Q64.82 13.80 64.80 13.78Q64.78 13.76 64.64 13.81Q64.50 13.86 64.13 13.83L64.13 13.83Q63.95 13.79 63.77 13.61L63.77 13.61L63.56 13.40Q63.45 13.23 63.41 13.03L63.41 13.03Q63.34 12.96 63.36 12.92ZM68.99 9.42L68.99 9.42Q68.98 9.11 68.85 8.95Q68.73 8.79 68.39 8.76L68.39 8.76Q68.29 8.83 68.13 9.23Q67.97 9.63 67.93 10.08L67.93 10.08Q67.79 10.75 67.79 11.42L67.79 11.42Q67.80 12.11 68.01 12.43L68.01 12.43Q68.04 12.49 68.07 12.47L68.07 12.47Q68.14 12.47 68.29 12.19L68.29 12.19Q69.03 10.85 68.99 9.42ZM69.43 12.10L69.43 12.10L69.22 12.64Q69.22 12.67 68.81 13.24L68.81 13.24Q68.68 13.51 68.34 13.54Q68.00 13.57 67.68 13.47L67.68 13.47Q67.24 13.31 67.02 13.10Q66.79 12.89 66.58 12.40Q66.36 11.90 66.35 11.58L66.35 11.58Q66.28 11.12 66.28 10.99L66.28 10.99L66.28 10.65Q66.28 10.15 66.32 10.07L66.32 10.07Q66.33 10.01 66.39 9.77L66.39 9.77Q66.46 9.18 66.72 8.65L66.72 8.65Q67.24 7.63 67.79 7.60L67.79 7.60L67.86 7.60Q67.89 7.62 67.94 7.62L67.94 7.62L68.12 7.62Q68.61 7.66 68.73 7.70L68.73 7.70Q68.94 7.76 69.09 7.76L69.09 7.76L69.45 7.83Q69.62 7.81 69.89 7.90Q70.17 7.98 70.19 8.02Q70.21 8.06 70.27 8.33Q70.32 8.60 70.34 8.71Q70.36 8.83 70.38 8.96L70.38 8.96Q70.49 9.98 70.74 10.86L70.74 10.86Q70.76 10.91 70.77 10.99Q70.78 11.07 70.87 11.32Q70.95 11.56 70.99 11.73Q71.04 11.90 71.15 12.18L71.15 12.18Q71.23 12.39 71.40 12.67L71.40 12.67Q71.71 13.10 71.08 13.34L71.08 13.34Q70.99 13.37 70.78 13.37L70.78 13.37Q70.74 13.37 70.52 13.23L70.52 13.23Q70.38 13.23 70.25 13.08L70.25 13.08L70.14 13.05Q70.04 12.95 69.97 12.95L69.97 12.95Q69.94 12.92 69.47 11.82L69.47 11.82Q69.43 11.97 69.43 12.10Z"></path></g><!----><!----></svg>